G04 #@! TF.GenerationSoftware,KiCad,Pcbnew,(5.1.5)-3*
G04 #@! TF.CreationDate,2020-04-03T17:49:39+02:00*
G04 #@! TF.ProjectId,SM-Magnet,534d2d4d-6167-46e6-9574-2e6b69636164,rev?*
G04 #@! TF.SameCoordinates,Original*
G04 #@! TF.FileFunction,Soldermask,Bot*
G04 #@! TF.FilePolarity,Negative*
%FSLAX46Y46*%
G04 Gerber Fmt 4.6, Leading zero omitted, Abs format (unit mm)*
G04 Created by KiCad (PCBNEW (5.1.5)-3) date 2020-04-03 17:49:39*
%MOMM*%
%LPD*%
G04 APERTURE LIST*
%ADD10C,0.100000*%
G04 APERTURE END LIST*
D10*
G36*
X36328228Y-37981703D02*
G01*
X36483100Y-38045853D01*
X36622481Y-38138985D01*
X36741015Y-38257519D01*
X36834147Y-38396900D01*
X36898297Y-38551772D01*
X36931000Y-38716184D01*
X36931000Y-38883816D01*
X36898297Y-39048228D01*
X36834147Y-39203100D01*
X36741015Y-39342481D01*
X36622481Y-39461015D01*
X36483100Y-39554147D01*
X36328228Y-39618297D01*
X36163816Y-39651000D01*
X35996184Y-39651000D01*
X35831772Y-39618297D01*
X35676900Y-39554147D01*
X35537519Y-39461015D01*
X35418985Y-39342481D01*
X35325853Y-39203100D01*
X35261703Y-39048228D01*
X35229000Y-38883816D01*
X35229000Y-38716184D01*
X35261703Y-38551772D01*
X35325853Y-38396900D01*
X35418985Y-38257519D01*
X35537519Y-38138985D01*
X35676900Y-38045853D01*
X35831772Y-37981703D01*
X35996184Y-37949000D01*
X36163816Y-37949000D01*
X36328228Y-37981703D01*
G37*
G36*
X31248228Y-37981703D02*
G01*
X31403100Y-38045853D01*
X31542481Y-38138985D01*
X31661015Y-38257519D01*
X31754147Y-38396900D01*
X31818297Y-38551772D01*
X31851000Y-38716184D01*
X31851000Y-38883816D01*
X31818297Y-39048228D01*
X31754147Y-39203100D01*
X31661015Y-39342481D01*
X31542481Y-39461015D01*
X31403100Y-39554147D01*
X31248228Y-39618297D01*
X31083816Y-39651000D01*
X30916184Y-39651000D01*
X30751772Y-39618297D01*
X30596900Y-39554147D01*
X30457519Y-39461015D01*
X30338985Y-39342481D01*
X30245853Y-39203100D01*
X30181703Y-39048228D01*
X30149000Y-38883816D01*
X30149000Y-38716184D01*
X30181703Y-38551772D01*
X30245853Y-38396900D01*
X30338985Y-38257519D01*
X30457519Y-38138985D01*
X30596900Y-38045853D01*
X30751772Y-37981703D01*
X30916184Y-37949000D01*
X31083816Y-37949000D01*
X31248228Y-37981703D01*
G37*
G36*
X47481000Y-37221000D02*
G01*
X45439000Y-37221000D01*
X45439000Y-35179000D01*
X47481000Y-35179000D01*
X47481000Y-37221000D01*
G37*
G36*
X51837814Y-35218236D02*
G01*
X52023626Y-35295202D01*
X52190847Y-35406935D01*
X52333065Y-35549153D01*
X52444798Y-35716374D01*
X52521764Y-35902186D01*
X52561000Y-36099439D01*
X52561000Y-36300561D01*
X52521764Y-36497814D01*
X52444798Y-36683626D01*
X52333065Y-36850847D01*
X52190847Y-36993065D01*
X52023626Y-37104798D01*
X51837814Y-37181764D01*
X51640561Y-37221000D01*
X51439439Y-37221000D01*
X51242186Y-37181764D01*
X51056374Y-37104798D01*
X50889153Y-36993065D01*
X50746935Y-36850847D01*
X50635202Y-36683626D01*
X50558236Y-36497814D01*
X50519000Y-36300561D01*
X50519000Y-36099439D01*
X50558236Y-35902186D01*
X50635202Y-35716374D01*
X50746935Y-35549153D01*
X50889153Y-35406935D01*
X51056374Y-35295202D01*
X51242186Y-35218236D01*
X51439439Y-35179000D01*
X51640561Y-35179000D01*
X51837814Y-35218236D01*
G37*
G36*
X49297814Y-35218236D02*
G01*
X49483626Y-35295202D01*
X49650847Y-35406935D01*
X49793065Y-35549153D01*
X49904798Y-35716374D01*
X49981764Y-35902186D01*
X50021000Y-36099439D01*
X50021000Y-36300561D01*
X49981764Y-36497814D01*
X49904798Y-36683626D01*
X49793065Y-36850847D01*
X49650847Y-36993065D01*
X49483626Y-37104798D01*
X49297814Y-37181764D01*
X49100561Y-37221000D01*
X48899439Y-37221000D01*
X48702186Y-37181764D01*
X48516374Y-37104798D01*
X48349153Y-36993065D01*
X48206935Y-36850847D01*
X48095202Y-36683626D01*
X48018236Y-36497814D01*
X47979000Y-36300561D01*
X47979000Y-36099439D01*
X48018236Y-35902186D01*
X48095202Y-35716374D01*
X48206935Y-35549153D01*
X48349153Y-35406935D01*
X48516374Y-35295202D01*
X48702186Y-35218236D01*
X48899439Y-35179000D01*
X49100561Y-35179000D01*
X49297814Y-35218236D01*
G37*
G36*
X36941000Y-34281000D02*
G01*
X34859000Y-34281000D01*
X34859000Y-32199000D01*
X36941000Y-32199000D01*
X36941000Y-34281000D01*
G37*
G36*
X28200443Y-32355519D02*
G01*
X28266627Y-32362037D01*
X28436466Y-32413557D01*
X28592991Y-32497222D01*
X28628729Y-32526552D01*
X28730186Y-32609814D01*
X28813448Y-32711271D01*
X28842778Y-32747009D01*
X28926443Y-32903534D01*
X28977963Y-33073373D01*
X28995359Y-33250000D01*
X28977963Y-33426627D01*
X28926443Y-33596466D01*
X28842778Y-33752991D01*
X28813448Y-33788729D01*
X28730186Y-33890186D01*
X28628729Y-33973448D01*
X28592991Y-34002778D01*
X28436466Y-34086443D01*
X28266627Y-34137963D01*
X28200443Y-34144481D01*
X28134260Y-34151000D01*
X27745740Y-34151000D01*
X27679557Y-34144481D01*
X27613373Y-34137963D01*
X27443534Y-34086443D01*
X27287009Y-34002778D01*
X27251271Y-33973448D01*
X27149814Y-33890186D01*
X27066552Y-33788729D01*
X27037222Y-33752991D01*
X26953557Y-33596466D01*
X26902037Y-33426627D01*
X26884641Y-33250000D01*
X26902037Y-33073373D01*
X26953557Y-32903534D01*
X27037222Y-32747009D01*
X27066552Y-32711271D01*
X27149814Y-32609814D01*
X27251271Y-32526552D01*
X27287009Y-32497222D01*
X27443534Y-32413557D01*
X27613373Y-32362037D01*
X27679557Y-32355519D01*
X27745740Y-32349000D01*
X28134260Y-32349000D01*
X28200443Y-32355519D01*
G37*
G36*
X36203647Y-29699004D02*
G01*
X36393097Y-29777477D01*
X36393098Y-29777478D01*
X36563599Y-29891402D01*
X36708598Y-30036401D01*
X36760447Y-30114000D01*
X36822523Y-30206903D01*
X36900996Y-30396353D01*
X36941000Y-30597469D01*
X36941000Y-30802531D01*
X36900996Y-31003647D01*
X36822523Y-31193097D01*
X36822522Y-31193098D01*
X36708598Y-31363599D01*
X36563599Y-31508598D01*
X36468556Y-31572103D01*
X36393097Y-31622523D01*
X36203647Y-31700996D01*
X36002531Y-31741000D01*
X35797469Y-31741000D01*
X35596353Y-31700996D01*
X35406903Y-31622523D01*
X35331444Y-31572103D01*
X35236401Y-31508598D01*
X35091402Y-31363599D01*
X34977478Y-31193098D01*
X34977477Y-31193097D01*
X34899004Y-31003647D01*
X34859000Y-30802531D01*
X34859000Y-30597469D01*
X34899004Y-30396353D01*
X34977477Y-30206903D01*
X35039553Y-30114000D01*
X35091402Y-30036401D01*
X35236401Y-29891402D01*
X35406902Y-29777478D01*
X35406903Y-29777477D01*
X35596353Y-29699004D01*
X35797469Y-29659000D01*
X36002531Y-29659000D01*
X36203647Y-29699004D01*
G37*
G36*
X28848600Y-29852989D02*
G01*
X28881652Y-29863015D01*
X28912103Y-29879292D01*
X28938799Y-29901201D01*
X28960708Y-29927897D01*
X28976985Y-29958348D01*
X28987011Y-29991400D01*
X28991000Y-30031903D01*
X28991000Y-31468097D01*
X28987011Y-31508600D01*
X28976985Y-31541652D01*
X28960708Y-31572103D01*
X28938799Y-31598799D01*
X28912103Y-31620708D01*
X28881652Y-31636985D01*
X28848600Y-31647011D01*
X28808097Y-31651000D01*
X27071903Y-31651000D01*
X27031400Y-31647011D01*
X26998348Y-31636985D01*
X26967897Y-31620708D01*
X26941201Y-31598799D01*
X26919292Y-31572103D01*
X26903015Y-31541652D01*
X26892989Y-31508600D01*
X26889000Y-31468097D01*
X26889000Y-30031903D01*
X26892989Y-29991400D01*
X26903015Y-29958348D01*
X26919292Y-29927897D01*
X26941201Y-29901201D01*
X26967897Y-29879292D01*
X26998348Y-29863015D01*
X27031400Y-29852989D01*
X27071903Y-29849000D01*
X28808097Y-29849000D01*
X28848600Y-29852989D01*
G37*
G36*
X53235443Y-28605519D02*
G01*
X53301627Y-28612037D01*
X53471466Y-28663557D01*
X53627991Y-28747222D01*
X53663729Y-28776552D01*
X53765186Y-28859814D01*
X53848448Y-28961271D01*
X53877778Y-28997009D01*
X53961443Y-29153534D01*
X54012963Y-29323373D01*
X54030359Y-29500000D01*
X54012963Y-29676627D01*
X53961443Y-29846466D01*
X53877778Y-30002991D01*
X53869901Y-30012589D01*
X53765186Y-30140186D01*
X53663729Y-30223448D01*
X53627991Y-30252778D01*
X53471466Y-30336443D01*
X53301627Y-30387963D01*
X53235442Y-30394482D01*
X53169260Y-30401000D01*
X52830740Y-30401000D01*
X52764558Y-30394482D01*
X52698373Y-30387963D01*
X52528534Y-30336443D01*
X52372009Y-30252778D01*
X52336271Y-30223448D01*
X52234814Y-30140186D01*
X52130099Y-30012589D01*
X52122222Y-30002991D01*
X52038557Y-29846466D01*
X51987037Y-29676627D01*
X51969641Y-29500000D01*
X51987037Y-29323373D01*
X52038557Y-29153534D01*
X52122222Y-28997009D01*
X52151552Y-28961271D01*
X52234814Y-28859814D01*
X52336271Y-28776552D01*
X52372009Y-28747222D01*
X52528534Y-28663557D01*
X52698373Y-28612037D01*
X52764557Y-28605519D01*
X52830740Y-28599000D01*
X53169260Y-28599000D01*
X53235443Y-28605519D01*
G37*
G36*
X36203647Y-27159004D02*
G01*
X36393097Y-27237477D01*
X36393098Y-27237478D01*
X36563599Y-27351402D01*
X36708598Y-27496401D01*
X36713001Y-27502991D01*
X36822523Y-27666903D01*
X36900996Y-27856353D01*
X36941000Y-28057469D01*
X36941000Y-28262531D01*
X36900996Y-28463647D01*
X36822523Y-28653097D01*
X36822522Y-28653098D01*
X36708598Y-28823599D01*
X36563599Y-28968598D01*
X36449674Y-29044719D01*
X36393097Y-29082523D01*
X36203647Y-29160996D01*
X36002531Y-29201000D01*
X35797469Y-29201000D01*
X35596353Y-29160996D01*
X35406903Y-29082523D01*
X35350326Y-29044719D01*
X35236401Y-28968598D01*
X35091402Y-28823599D01*
X34977478Y-28653098D01*
X34977477Y-28653097D01*
X34899004Y-28463647D01*
X34859000Y-28262531D01*
X34859000Y-28057469D01*
X34899004Y-27856353D01*
X34977477Y-27666903D01*
X35086999Y-27502991D01*
X35091402Y-27496401D01*
X35236401Y-27351402D01*
X35406902Y-27237478D01*
X35406903Y-27237477D01*
X35596353Y-27159004D01*
X35797469Y-27119000D01*
X36002531Y-27119000D01*
X36203647Y-27159004D01*
G37*
G36*
X43206000Y-28286000D02*
G01*
X41194000Y-28286000D01*
X41194000Y-26274000D01*
X43206000Y-26274000D01*
X43206000Y-28286000D01*
G37*
G36*
X53235442Y-26105518D02*
G01*
X53301627Y-26112037D01*
X53471466Y-26163557D01*
X53627991Y-26247222D01*
X53660620Y-26274000D01*
X53765186Y-26359814D01*
X53848448Y-26461271D01*
X53877778Y-26497009D01*
X53961443Y-26653534D01*
X54012963Y-26823373D01*
X54030359Y-27000000D01*
X54012963Y-27176627D01*
X53961443Y-27346466D01*
X53877778Y-27502991D01*
X53848448Y-27538729D01*
X53765186Y-27640186D01*
X53663729Y-27723448D01*
X53627991Y-27752778D01*
X53471466Y-27836443D01*
X53301627Y-27887963D01*
X53235443Y-27894481D01*
X53169260Y-27901000D01*
X52830740Y-27901000D01*
X52764557Y-27894481D01*
X52698373Y-27887963D01*
X52528534Y-27836443D01*
X52372009Y-27752778D01*
X52336271Y-27723448D01*
X52234814Y-27640186D01*
X52151552Y-27538729D01*
X52122222Y-27502991D01*
X52038557Y-27346466D01*
X51987037Y-27176627D01*
X51969641Y-27000000D01*
X51987037Y-26823373D01*
X52038557Y-26653534D01*
X52122222Y-26497009D01*
X52151552Y-26461271D01*
X52234814Y-26359814D01*
X52339380Y-26274000D01*
X52372009Y-26247222D01*
X52528534Y-26163557D01*
X52698373Y-26112037D01*
X52764558Y-26105518D01*
X52830740Y-26099000D01*
X53169260Y-26099000D01*
X53235442Y-26105518D01*
G37*
G36*
X42428653Y-23759773D02*
G01*
X42493439Y-23772660D01*
X42676520Y-23848494D01*
X42841288Y-23958588D01*
X42981412Y-24098712D01*
X43091506Y-24263480D01*
X43167340Y-24446561D01*
X43206000Y-24640918D01*
X43206000Y-24839082D01*
X43167340Y-25033439D01*
X43091506Y-25216520D01*
X42981412Y-25381288D01*
X42841288Y-25521412D01*
X42676520Y-25631506D01*
X42493439Y-25707340D01*
X42428653Y-25720227D01*
X42299084Y-25746000D01*
X42100916Y-25746000D01*
X41971347Y-25720227D01*
X41906561Y-25707340D01*
X41723480Y-25631506D01*
X41558712Y-25521412D01*
X41418588Y-25381288D01*
X41308494Y-25216520D01*
X41232660Y-25033439D01*
X41194000Y-24839082D01*
X41194000Y-24640918D01*
X41232660Y-24446561D01*
X41308494Y-24263480D01*
X41418588Y-24098712D01*
X41558712Y-23958588D01*
X41723480Y-23848494D01*
X41906561Y-23772660D01*
X41971347Y-23759773D01*
X42100916Y-23734000D01*
X42299084Y-23734000D01*
X42428653Y-23759773D01*
G37*
G36*
X53883600Y-23602989D02*
G01*
X53916652Y-23613015D01*
X53947103Y-23629292D01*
X53973799Y-23651201D01*
X53995708Y-23677897D01*
X54011985Y-23708348D01*
X54022011Y-23741400D01*
X54026000Y-23781903D01*
X54026000Y-25218097D01*
X54022011Y-25258600D01*
X54011985Y-25291652D01*
X53995708Y-25322103D01*
X53973799Y-25348799D01*
X53947103Y-25370708D01*
X53916652Y-25386985D01*
X53883600Y-25397011D01*
X53843097Y-25401000D01*
X52156903Y-25401000D01*
X52116400Y-25397011D01*
X52083348Y-25386985D01*
X52052897Y-25370708D01*
X52026201Y-25348799D01*
X52004292Y-25322103D01*
X51988015Y-25291652D01*
X51977989Y-25258600D01*
X51974000Y-25218097D01*
X51974000Y-23781903D01*
X51977989Y-23741400D01*
X51988015Y-23708348D01*
X52004292Y-23677897D01*
X52026201Y-23651201D01*
X52052897Y-23629292D01*
X52083348Y-23613015D01*
X52116400Y-23602989D01*
X52156903Y-23599000D01*
X53843097Y-23599000D01*
X53883600Y-23602989D01*
G37*
G36*
X42428653Y-21219773D02*
G01*
X42493439Y-21232660D01*
X42676520Y-21308494D01*
X42841288Y-21418588D01*
X42981412Y-21558712D01*
X43091506Y-21723480D01*
X43167340Y-21906561D01*
X43167340Y-21906562D01*
X43186197Y-22001359D01*
X43206000Y-22100918D01*
X43206000Y-22299082D01*
X43167340Y-22493439D01*
X43091506Y-22676520D01*
X42981412Y-22841288D01*
X42841288Y-22981412D01*
X42676520Y-23091506D01*
X42493439Y-23167340D01*
X42428653Y-23180227D01*
X42299084Y-23206000D01*
X42100916Y-23206000D01*
X41971347Y-23180227D01*
X41906561Y-23167340D01*
X41723480Y-23091506D01*
X41558712Y-22981412D01*
X41418588Y-22841288D01*
X41308494Y-22676520D01*
X41232660Y-22493439D01*
X41194000Y-22299082D01*
X41194000Y-22100918D01*
X41213804Y-22001359D01*
X41232660Y-21906562D01*
X41232660Y-21906561D01*
X41308494Y-21723480D01*
X41418588Y-21558712D01*
X41558712Y-21418588D01*
X41723480Y-21308494D01*
X41906561Y-21232660D01*
X41971347Y-21219773D01*
X42100916Y-21194000D01*
X42299084Y-21194000D01*
X42428653Y-21219773D01*
G37*
G36*
X31839627Y-19958037D02*
G01*
X32009466Y-20009557D01*
X32165991Y-20093222D01*
X32201729Y-20122552D01*
X32303186Y-20205814D01*
X32386448Y-20307271D01*
X32415778Y-20343009D01*
X32499443Y-20499534D01*
X32550963Y-20669374D01*
X32564000Y-20801743D01*
X32564000Y-21140258D01*
X32550963Y-21272627D01*
X32499443Y-21442466D01*
X32415778Y-21598991D01*
X32386448Y-21634729D01*
X32303186Y-21736186D01*
X32165989Y-21848779D01*
X32009467Y-21932442D01*
X32009465Y-21932443D01*
X31839626Y-21983963D01*
X31663000Y-22001359D01*
X31486373Y-21983963D01*
X31316534Y-21932443D01*
X31160009Y-21848778D01*
X31117750Y-21814097D01*
X31022814Y-21736186D01*
X30910221Y-21598989D01*
X30826558Y-21442467D01*
X30826557Y-21442465D01*
X30775037Y-21272626D01*
X30762000Y-21140257D01*
X30762000Y-20801742D01*
X30775037Y-20669373D01*
X30826557Y-20499534D01*
X30910222Y-20343009D01*
X31022815Y-20205815D01*
X31160010Y-20093222D01*
X31316535Y-20009557D01*
X31486374Y-19958037D01*
X31663000Y-19940641D01*
X31839627Y-19958037D01*
G37*
G36*
X26839627Y-19958037D02*
G01*
X27009466Y-20009557D01*
X27165991Y-20093222D01*
X27201729Y-20122552D01*
X27303186Y-20205814D01*
X27386448Y-20307271D01*
X27415778Y-20343009D01*
X27499443Y-20499534D01*
X27550963Y-20669374D01*
X27564000Y-20801743D01*
X27564000Y-21140258D01*
X27550963Y-21272627D01*
X27499443Y-21442466D01*
X27415778Y-21598991D01*
X27386448Y-21634729D01*
X27303186Y-21736186D01*
X27165989Y-21848779D01*
X27009467Y-21932442D01*
X27009465Y-21932443D01*
X26839626Y-21983963D01*
X26663000Y-22001359D01*
X26486373Y-21983963D01*
X26316534Y-21932443D01*
X26160009Y-21848778D01*
X26117750Y-21814097D01*
X26022814Y-21736186D01*
X25910221Y-21598989D01*
X25826558Y-21442467D01*
X25826557Y-21442465D01*
X25775037Y-21272626D01*
X25762000Y-21140257D01*
X25762000Y-20801742D01*
X25775037Y-20669373D01*
X25826557Y-20499534D01*
X25910222Y-20343009D01*
X26022815Y-20205815D01*
X26160010Y-20093222D01*
X26316535Y-20009557D01*
X26486374Y-19958037D01*
X26663000Y-19940641D01*
X26839627Y-19958037D01*
G37*
G36*
X29339627Y-19958037D02*
G01*
X29509466Y-20009557D01*
X29665991Y-20093222D01*
X29701729Y-20122552D01*
X29803186Y-20205814D01*
X29886448Y-20307271D01*
X29915778Y-20343009D01*
X29999443Y-20499534D01*
X30050963Y-20669374D01*
X30064000Y-20801743D01*
X30064000Y-21140258D01*
X30050963Y-21272627D01*
X29999443Y-21442466D01*
X29915778Y-21598991D01*
X29886448Y-21634729D01*
X29803186Y-21736186D01*
X29665989Y-21848779D01*
X29509467Y-21932442D01*
X29509465Y-21932443D01*
X29339626Y-21983963D01*
X29163000Y-22001359D01*
X28986373Y-21983963D01*
X28816534Y-21932443D01*
X28660009Y-21848778D01*
X28617750Y-21814097D01*
X28522814Y-21736186D01*
X28410221Y-21598989D01*
X28326558Y-21442467D01*
X28326557Y-21442465D01*
X28275037Y-21272626D01*
X28262000Y-21140257D01*
X28262000Y-20801742D01*
X28275037Y-20669373D01*
X28326557Y-20499534D01*
X28410222Y-20343009D01*
X28522815Y-20205815D01*
X28660010Y-20093222D01*
X28816535Y-20009557D01*
X28986374Y-19958037D01*
X29163000Y-19940641D01*
X29339627Y-19958037D01*
G37*
G36*
X34921600Y-19948989D02*
G01*
X34954652Y-19959015D01*
X34985103Y-19975292D01*
X35011799Y-19997201D01*
X35033708Y-20023897D01*
X35049985Y-20054348D01*
X35060011Y-20087400D01*
X35064000Y-20127903D01*
X35064000Y-21814097D01*
X35060011Y-21854600D01*
X35049985Y-21887652D01*
X35033708Y-21918103D01*
X35011799Y-21944799D01*
X34985103Y-21966708D01*
X34954652Y-21982985D01*
X34921600Y-21993011D01*
X34881097Y-21997000D01*
X33444903Y-21997000D01*
X33404400Y-21993011D01*
X33371348Y-21982985D01*
X33340897Y-21966708D01*
X33314201Y-21944799D01*
X33292292Y-21918103D01*
X33276015Y-21887652D01*
X33265989Y-21854600D01*
X33262000Y-21814097D01*
X33262000Y-20127903D01*
X33265989Y-20087400D01*
X33276015Y-20054348D01*
X33292292Y-20023897D01*
X33314201Y-19997201D01*
X33340897Y-19975292D01*
X33371348Y-19959015D01*
X33404400Y-19948989D01*
X33444903Y-19945000D01*
X34881097Y-19945000D01*
X34921600Y-19948989D01*
G37*
M02*
