M48
; DRILL file {KiCad (5.1.5)-3} date 03.04.2020 17:49:42
; FORMAT={-:-/ absolute / inch / decimal}
; #@! TF.CreationDate,2020-04-03T17:49:42+02:00
; #@! TF.GenerationSoftware,Kicad,Pcbnew,(5.1.5)-3
; #@! TF.FileFunction,Plated,1,2,PTH
FMAT,2
INCH
T1C0.0315
T2C0.0374
T3C0.0394
T4C0.0500
T5C0.0508
T6C0.0520
T7C0.1181
%
G90
G05
T1
X1.2205Y-1.5276
X1.4205Y-1.5276
T2
X1.0497Y-0.8256
X1.1481Y-0.8256
X1.2466Y-0.8256
X1.345Y-0.8256
X2.0866Y-0.9646
X2.0866Y-1.063
X2.0866Y-1.1614
T3
X1.1Y-1.2106
X1.1Y-1.3091
T4
X1.6614Y-0.874
X1.6614Y-0.974
X1.6614Y-1.074
T5
X1.8291Y-1.4252
X1.9291Y-1.4252
X2.0291Y-1.4252
T6
X1.4134Y-1.1087
X1.4134Y-1.2087
X1.4134Y-1.3087
T7
X1.0Y-1.5394
X2.1102Y-0.7402
T0
M30
